<svg width="25" height="24" viewBox="0 0 25 24" fill="none" xmlns="http://www.w3.org/2000/svg">
<mask id="mask0_312_1734" style="mask-type:alpha" maskUnits="userSpaceOnUse" x="0" y="0" width="25" height="24">
<rect x="0.5" width="24" height="24" fill="#D9D9D9"/>
</mask>
<g mask="url(#mask0_312_1734)">
<path d="M2.5 20C2.21667 20 1.97933 19.904 1.788 19.712C1.596 19.5207 1.5 19.2833 1.5 19V17.2C1.5 16.6333 1.646 16.1123 1.938 15.637C2.22933 15.1623 2.61667 14.8 3.1 14.55C4.13333 14.0333 5.18333 13.6457 6.25 13.387C7.31667 13.129 8.4 13 9.5 13C10.6 13 11.6833 13.129 12.75 13.387C13.8167 13.6457 14.8667 14.0333 15.9 14.55C16.3833 14.8 16.7707 15.1623 17.062 15.637C17.354 16.1123 17.5 16.6333 17.5 17.2V19C17.5 19.2833 17.404 19.5207 17.212 19.712C17.0207 19.904 16.7833 20 16.5 20H2.5ZM19.025 20C19.175 19.8833 19.2917 19.7373 19.375 19.562C19.4583 19.3873 19.5 19.1917 19.5 18.975V17C19.5 16.2667 19.296 15.5623 18.888 14.887C18.4793 14.2123 17.9 13.6333 17.15 13.15C18 13.25 18.8 13.4207 19.55 13.662C20.3 13.904 21 14.2 21.65 14.55C22.25 14.8833 22.7083 15.254 23.025 15.662C23.3417 16.0707 23.5 16.5167 23.5 17V19C23.5 19.2833 23.404 19.5207 23.212 19.712C23.0207 19.904 22.7833 20 22.5 20H19.025ZM9.5 12C8.4 12 7.45833 11.6083 6.675 10.825C5.89167 10.0417 5.5 9.1 5.5 8C5.5 6.9 5.89167 5.95833 6.675 5.175C7.45833 4.39167 8.4 4 9.5 4C10.6 4 11.5417 4.39167 12.325 5.175C13.1083 5.95833 13.5 6.9 13.5 8C13.5 9.1 13.1083 10.0417 12.325 10.825C11.5417 11.6083 10.6 12 9.5 12ZM19.5 8C19.5 9.1 19.1083 10.0417 18.325 10.825C17.5417 11.6083 16.6 12 15.5 12C15.3167 12 15.0833 11.9793 14.8 11.938C14.5167 11.896 14.2833 11.85 14.1 11.8C14.55 11.2667 14.8957 10.675 15.137 10.025C15.379 9.375 15.5 8.7 15.5 8C15.5 7.3 15.379 6.625 15.137 5.975C14.8957 5.325 14.55 4.73333 14.1 4.2C14.3333 4.11667 14.5667 4.06233 14.8 4.037C15.0333 4.01233 15.2667 4 15.5 4C16.6 4 17.5417 4.39167 18.325 5.175C19.1083 5.95833 19.5 6.9 19.5 8Z" fill="#001C38"/>
</g>
</svg>
