<svg width="25" height="24" viewBox="0 0 25 24" fill="none" xmlns="http://www.w3.org/2000/svg">
<mask id="mask0_312_490" style="mask-type:alpha" maskUnits="userSpaceOnUse" x="0" y="0" width="25" height="24">
<rect x="0.5" width="24" height="24" fill="#D9D9D9"/>
</mask>
<g mask="url(#mask0_312_490)">
<path d="M14.3748 22H10.6248C10.3748 22 10.1582 21.9167 9.97485 21.75C9.79152 21.5833 9.68318 21.375 9.64985 21.125L9.34985 18.8C9.13318 18.7167 8.92918 18.6167 8.73785 18.5C8.54585 18.3833 8.35818 18.2583 8.17485 18.125L5.99985 19.025C5.76652 19.1083 5.53318 19.1167 5.29985 19.05C5.06652 18.9833 4.88318 18.8417 4.74985 18.625L2.89985 15.4C2.76652 15.1833 2.72485 14.95 2.77485 14.7C2.82485 14.45 2.94985 14.25 3.14985 14.1L5.02485 12.675C5.00818 12.5583 4.99985 12.4457 4.99985 12.337V11.662C4.99985 11.554 5.00818 11.4417 5.02485 11.325L3.14985 9.9C2.94985 9.75 2.82485 9.55 2.77485 9.3C2.72485 9.05 2.76652 8.81667 2.89985 8.6L4.74985 5.375C4.86652 5.14167 5.04552 4.99567 5.28685 4.937C5.52885 4.879 5.76652 4.89167 5.99985 4.975L8.17485 5.875C8.35818 5.74167 8.54985 5.61667 8.74985 5.5C8.94985 5.38333 9.14985 5.28333 9.34985 5.2L9.64985 2.875C9.68318 2.625 9.79152 2.41667 9.97485 2.25C10.1582 2.08333 10.3748 2 10.6248 2H14.3748C14.6248 2 14.8415 2.08333 15.0248 2.25C15.2082 2.41667 15.3165 2.625 15.3498 2.875L15.6498 5.2C15.8665 5.28333 16.0708 5.38333 16.2628 5.5C16.4542 5.61667 16.6415 5.74167 16.8249 5.875L18.9998 4.975C19.2332 4.89167 19.4665 4.88333 19.6999 4.95C19.9332 5.01667 20.1165 5.15833 20.2498 5.375L22.0998 8.6C22.2332 8.81667 22.2748 9.05 22.2248 9.3C22.1749 9.55 22.0499 9.75 21.8498 9.9L19.9748 11.325C19.9915 11.4417 19.9998 11.554 19.9998 11.662V12.337C19.9998 12.4457 19.9832 12.5583 19.9499 12.675L21.8249 14.1C22.0249 14.25 22.1499 14.45 22.1999 14.7C22.2498 14.95 22.2082 15.1833 22.0749 15.4L20.2248 18.6C20.0915 18.8167 19.9042 18.9627 19.6628 19.038C19.4208 19.1127 19.1832 19.1083 18.9499 19.025L16.8249 18.125C16.6415 18.2583 16.4498 18.3833 16.2498 18.5C16.0498 18.6167 15.8498 18.7167 15.6498 18.8L15.3498 21.125C15.3165 21.375 15.2082 21.5833 15.0248 21.75C14.8415 21.9167 14.6248 22 14.3748 22ZM12.5498 15.5C13.5165 15.5 14.3415 15.1583 15.0248 14.475C15.7082 13.7917 16.0498 12.9667 16.0498 12C16.0498 11.0333 15.7082 10.2083 15.0248 9.525C14.3415 8.84167 13.5165 8.5 12.5498 8.5C11.5665 8.5 10.7372 8.84167 10.0618 9.525C9.38718 10.2083 9.04985 11.0333 9.04985 12C9.04985 12.9667 9.38718 13.7917 10.0618 14.475C10.7372 15.1583 11.5665 15.5 12.5498 15.5Z" fill="#001C38"/>
</g>
</svg>
